<svg id="_ロゴマーク" xmlns="http://www.w3.org/2000/svg" viewBox="0 0 642.72 70.83"><defs><style>.cls-1{fill:#ff187f}.cls-4{fill:#3c3c3c}</style></defs><g id="_ロゴタイプ"><path class="cls-4" d="M97.73 21.04L71.26 60.03c-.27.41-.4.88-.4 1.33 0 .85.44 1.68 1.25 2.12 1.09.6 2.46.26 3.16-.78l25.31-37.34-2.85-4.32zm25.37 38.54H91.17c-.67 0-1.29.32-1.69.85-1.02 1.39-.03 3.35 1.69 3.35h34.69l-2.76-4.2z"/><path class="cls-1" d="M144.96 63.78h-19.1l-2.76-4.2h16.96l-30.88-46.9-8.6 12.68-2.85-4.32 8.18-12.05c.59-.92 1.84-1.93 3.27-1.93 1.51 0 2.69.92 3.36 1.93l34.17 51.53c.92 1.4-.08 3.26-1.75 3.26z"/><path class="cls-4" d="M269.24 63.75c-10.79 0-15.69-6.69-15.69-18.51V19.73c0-8.2 3.53-12.64 11.79-12.64h39.53c8.25 0 11.62 3.39 11.62 11.71v6.8c0 8.31-3.37 11.84-11.62 11.84h-46.54v7.13c0 9.16 4.03 14.99 12.25 14.99h43.77a2.1 2.1 0 110 4.2h-45.11zm-1.59-52.62c-6.29 0-9.31 2.71-9.31 9.18v12.93h44.19c6.24 0 9.27-2.3 9.27-8.82v-4.11c0-6.46-3.07-9.18-9.31-9.18h-34.84zm145.24-1.66v51.9c0 1.34-1.09 2.43-2.43 2.43s-2.43-1.09-2.43-2.43V9.47c0-1.34 1.09-2.43 2.43-2.43s2.43 1.09 2.43 2.43zm28.92 54.34c-8.15 0-11.6-4.65-11.6-12.85v-6.63c0-8.2 3.48-11.7 11.62-11.7h46.58v-6.5c0-9.16-4.18-14.9-12.34-14.9H432.3a2.1 2.1 0 110-4.2h45.11c10.68 0 15.69 6.61 15.69 18.43v36.03c0 1.26-1.04 2.33-2.3 2.33h-49zm2.37-27c-6.24 0-9.27 2.14-9.27 8.61v3.94c0 6.52 3.03 10.25 9.27 10.25h41.95c1.26 0 2.28-1.02 2.28-2.28V36.81h-44.23zm61.96 23.58c.4-.5 1-.79 1.64-.79h39.74c10.99 0 16.28-3.92 16.28-11.64 0-8.56-6.21-10.74-18.12-10.74h-19.29c-14.01 0-20.64-4.61-20.64-14.52s6.79-15.67 21.31-15.67h39.34c1.77 0 2.78 2.03 1.7 3.44-.4.53-1.03.84-1.7.84h-39.59c-10.91 0-16.36 3.92-16.36 11.64 0 8.39 6.21 10.49 18.21 10.49h19.37c13.68 0 20.56 4.45 20.56 14.52s-6.71 15.84-21.4 15.84h-39.4c-1.76 0-2.74-2.03-1.64-3.41zm74.14 0c.4-.5 1-.79 1.64-.79h39.74c10.99 0 16.28-3.92 16.28-11.64 0-8.56-6.21-10.74-18.12-10.74h-19.29c-14.01 0-20.64-4.61-20.64-14.52s6.79-15.67 21.31-15.67h39.34c1.77 0 2.78 2.03 1.7 3.44-.4.53-1.03.84-1.7.84h-39.59c-10.91 0-16.36 3.92-16.36 11.64 0 8.39 6.21 10.49 18.21 10.49h19.37c13.68 0 20.56 4.45 20.56 14.52s-6.71 15.84-21.4 15.84h-39.4c-1.76 0-2.74-2.03-1.64-3.41z"/><path class="cls-1" d="M391.39 10.42l-.07.08c-.4.51-1.01.8-1.65.8h-29.19c-4.18 0-8.24.78-11.87 2.28l-2.51-3.8c4.25-1.78 9.12-2.75 14.38-2.75h29.25c1.75 0 2.74 2.01 1.66 3.39zm-.02 52.6c-.4.5-1 .79-1.64.79h-8.05l-2.77-4.2h10.82c1.76 0 2.74 2.04 1.64 3.41z"/><path class="cls-4" d="M381.68 63.81h-21.15c-18.12 0-31.59-12.6-31.59-28.88 0-11.67 6.76-20.82 17.16-25.15l2.51 3.8c-8.59 3.53-14.81 11.05-14.81 21.61 0 14.85 12.64 24.42 29.17 24.42h15.94l2.77 4.2zM209.6 63.8c-18.12 0-31.4-12.65-31.4-28.93s13.33-27.84 31.45-27.84h29.2c1.75 0 2.73 2.02 1.65 3.39l-.07.08c-.4.51-1.01.8-1.65.8h-29.14c-14.1 0-26.58 8.79-26.58 23.81s12.44 24.48 28.97 24.48h26.82c1.76 0 2.74 2.03 1.64 3.41-.4.5-1 .79-1.64.79H209.6zm-49.04-47.96c-1.34 0-2.43-1.09-2.43-2.43V9.47c0-1.34 1.09-2.43 2.43-2.43s2.43 1.09 2.43 2.43v3.94c0 1.34-1.09 2.43-2.43 2.43zm-2.43 6.22v39.25c0 1.37 1.1 2.48 2.47 2.48 1.38 0 2.51-1.11 2.5-2.49l-.1-39.24c0-1.34-1.09-2.43-2.43-2.43s-2.43 1.09-2.43 2.43z"/></g><g id="_シンボルマーク"><path d="M45.21 60.48c4.67 1.07 7.64 2.69 7.64 4.49 0 3.23-9.56 5.86-21.34 5.86s-21.34-2.62-21.34-5.86c0-1.8 2.96-3.41 7.62-4.49.06-.01.12.03.12.1s-.03.08-.07.1c-3.77 1.03-6.11 2.47-6.11 4.08 0 3.12 8.86 5.64 19.78 5.64s19.78-2.53 19.78-5.64c0-1.61-2.36-3.06-6.13-4.08-.04-.01-.07-.05-.07-.1 0-.06.06-.11.12-.1zm-10.49 1.77s.02.04.04.05c1.15.29 1.88.73 1.88 1.22 0 .87-2.3 1.58-5.13 1.58s-5.13-.71-5.13-1.58c0-.49.73-.93 1.88-1.22.02 0 .04-.03.04-.05s-.03-.06-.06-.05c-1.78.31-2.97.86-2.97 1.48 0 .96 2.8 1.74 6.25 1.74s6.25-.78 6.25-1.74c0-.63-1.19-1.18-2.97-1.48-.03 0-.06.02-.06.05z" fill="#9c004c"/><path class="cls-1" d="M44.82 0c-5.21 0-9.92 2.02-13.28 5.49-.02.02-.04.02-.06 0C28.12 2.02 23.41 0 18.2 0 8 0 .01 8.09 0 18.28c0 3.78 1.53 8.15 4.29 12.45 3.43 5.33 8.55 10.37 13.1 14.94 5.44 5.46 9.99 9.75 12.47 11.53.54.38 1.1.7 1.65.69.55 0 1.12-.31 1.65-.69 2.47-1.78 7.03-6.07 12.47-11.53 4.55-4.57 9.67-9.6 13.1-14.94 2.76-4.3 4.3-8.67 4.29-12.45C63.01 8.08 55.02 0 44.82 0z"/><path d="M36.37 19.71c-1.9 0-3.62.74-4.85 2h-.02c-1.23-1.27-2.95-2-4.85-2-3.72 0-6.64 2.95-6.65 6.68 0 1.38.56 2.98 1.57 4.55 1.25 1.95 3.12 3.79 4.78 5.46 1.99 1.99 3.65 3.56 4.55 4.21.2.14.4.25.6.25.2 0 .41-.11.6-.25.9-.65 2.57-2.22 4.55-4.21 1.66-1.67 3.53-3.51 4.78-5.46 1.01-1.57 1.57-3.17 1.57-4.55 0-3.72-2.92-6.68-6.65-6.68z" fill="#ffb5a7"/></g></svg>