<svg version="1.1" id="_ロゴマーク" xmlns="http://www.w3.org/2000/svg" x="0" y="0" viewBox="0 0 642.7 70.8" xml:space="preserve"><style>.st0{fill:#fff}.st1{fill:#ff187f}</style><g id="_ロゴタイプ"><path class="st0" d="M97.7 21L71.3 60c-.3.4-.4.9-.4 1.3 0 .8.4 1.7 1.2 2.1 1.1.6 2.5.3 3.2-.8l25.3-37.3c0 .1-2.9-4.3-2.9-4.3zm25.4 38.6H91.2c-.7 0-1.3.3-1.7.8-1 1.4 0 3.3 1.7 3.3h34.7c0 .1-2.8-4.1-2.8-4.1z"/><path class="st1" d="M145 63.8h-19.1l-2.8-4.2h17l-30.9-46.9-8.6 12.7-2.9-4.4 8.2-12c.6-.9 1.8-1.9 3.3-1.9 1.5 0 2.7.9 3.4 1.9l34.2 51.5c.8 1.4-.2 3.3-1.8 3.3z"/><path class="st0" d="M269.2 63.8c-10.8 0-15.7-6.7-15.7-18.5V19.7c0-8.2 3.5-12.6 11.8-12.6h39.5c8.2 0 11.6 3.4 11.6 11.7v6.8c0 8.3-3.4 11.8-11.6 11.8h-46.5v7.1c0 9.2 4 15 12.2 15h43.8c1.2 0 2.1.9 2.1 2.1 0 1.2-.9 2.1-2.1 2.1l-45.1.1zm-1.6-52.7c-6.3 0-9.3 2.7-9.3 9.2v12.9h44.2c6.2 0 9.3-2.3 9.3-8.8v-4.1c0-6.5-3.1-9.2-9.3-9.2h-34.9zm145.3-1.6v51.9c0 1.3-1.1 2.4-2.4 2.4-1.3 0-2.4-1.1-2.4-2.4V9.5c0-1.3 1.1-2.4 2.4-2.4 1.3-.1 2.4 1 2.4 2.4zm28.9 54.3c-8.1 0-11.6-4.7-11.6-12.9v-6.6c0-8.2 3.5-11.7 11.6-11.7h46.6v-6.5c0-9.2-4.2-14.9-12.3-14.9h-43.8c-1.2 0-2.1-.9-2.1-2.1 0-1.2.9-2.1 2.1-2.1h45.1c10.7 0 15.7 6.6 15.7 18.4v36c0 1.3-1 2.3-2.3 2.3l-49 .1zm2.4-27c-6.2 0-9.3 2.1-9.3 8.6v3.9c0 6.5 3 10.2 9.3 10.2h42c1.3 0 2.3-1 2.3-2.3V36.8h-44.3zm61.9 23.6c.4-.5 1-.8 1.6-.8h39.7c11 0 16.3-3.9 16.3-11.6 0-8.6-6.2-10.7-18.1-10.7h-19.3c-14 0-20.6-4.6-20.6-14.5S512.5 7 527.1 7h39.3c1.8 0 2.8 2 1.7 3.4-.4.5-1 .8-1.7.8h-39.6c-10.9 0-16.4 3.9-16.4 11.6 0 8.4 6.2 10.5 18.2 10.5H548c13.7 0 20.6 4.5 20.6 14.5s-6.7 15.8-21.4 15.8h-39.4c-1.8.2-2.7-1.8-1.7-3.2zm74.2 0c.4-.5 1-.8 1.6-.8h39.7c11 0 16.3-3.9 16.3-11.6 0-8.6-6.2-10.7-18.1-10.7h-19.3c-14 0-20.6-4.6-20.6-14.5S586.7 7 601.2 7h39.3c1.8 0 2.8 2 1.7 3.4-.4.5-1 .8-1.7.8H601c-10.9 0-16.4 3.9-16.4 11.6 0 8.4 6.2 10.5 18.2 10.5h19.4c13.7 0 20.6 4.5 20.6 14.5s-6.7 15.8-21.4 15.8H582c-1.8.2-2.8-1.8-1.7-3.2z"/><path class="st1" d="M391.4 10.4c-.5.6-1.1.9-1.7.9h-29.2c-4.2 0-8.2.8-11.9 2.3l-2.5-3.8C350.4 8 355.2 7 360.5 7h29.2c1.8 0 2.8 2 1.7 3.4zm0 52.6c-.4.5-1 .8-1.6.8h-8l-2.8-4.2h10.8c1.7 0 2.7 2.1 1.6 3.4z"/><path class="st0" d="M381.7 63.8h-21.1c-18.1 0-31.6-12.6-31.6-28.9 0-11.7 6.8-20.8 17.2-25.1l2.5 3.8c-8.6 3.5-14.8 11.1-14.8 21.6 0 14.8 12.6 24.4 29.2 24.4H379l2.7 4.2zm-172.1 0c-18.1 0-31.4-12.6-31.4-28.9S191.5 7 209.7 7h29.2c1.8 0 2.7 2 1.6 3.4l-.1.1c-.4.5-1 .8-1.6.8h-29.1c-14.1 0-26.6 8.8-26.6 23.8s12.4 24.5 29 24.5h26.8c1.8 0 2.7 2 1.6 3.4-.4.5-1 .8-1.6.8h-29.3zm-49-48c-1.3 0-2.4-1.1-2.4-2.4V9.5c0-1.3 1.1-2.4 2.4-2.4 1.3 0 2.4 1.1 2.4 2.4v3.9c0 1.4-1.1 2.4-2.4 2.4zm-2.5 6.3v39.2c0 1.4 1.1 2.5 2.5 2.5s2.5-1.1 2.5-2.5l-.1-39.2c0-1.3-1.1-2.4-2.4-2.4-1.4-.1-2.5 1-2.5 2.4z"/></g><g id="_シンボルマーク"><path d="M45.2 60.5c4.7 1.1 7.6 2.7 7.6 4.5 0 3.2-9.6 5.9-21.3 5.9S10.2 68.2 10.2 65c0-1.8 3-3.4 7.6-4.5.1 0 .1 0 .1.1 0 0 0 .1-.1.1-3.8 1-6.1 2.5-6.1 4.1 0 3.1 8.9 5.6 19.8 5.6s19.8-2.5 19.8-5.6c0-1.6-2.4-3.1-6.1-4.1 0 0-.1 0-.1-.1s.1-.1.1-.1zm-10.5 1.7s0 .1 0 0c1.2.3 1.9.8 1.9 1.3 0 .9-2.3 1.6-5.1 1.6s-5.1-.7-5.1-1.6c0-.5.7-.9 1.9-1.2 0 0 0-.1-.1 0-1.8.3-3 .9-3 1.5 0 1 2.8 1.7 6.2 1.7s6.3-.8 6.3-1.7c.1-.8-1.1-1.3-3-1.6.1 0 0 0 0 0z" fill="#9c004c"/><path class="st1" d="M44.8 0c-5.2 0-9.9 2-13.3 5.5h-.1C28.1 2 23.4 0 18.2 0 8 0 0 8.1 0 18.3c0 3.8 1.5 8.1 4.3 12.4 3.4 5.3 8.6 10.4 13.1 14.9 5.4 5.5 10 9.8 12.5 11.5.5.4 1.1.7 1.6.7.6 0 1.1-.3 1.6-.7 2.5-1.8 7-6.1 12.5-11.5 4.5-4.6 9.7-9.6 13.1-14.9C61.5 26.4 63 22 63 18.2 63 8.1 55 0 44.8 0z"/><path d="M36.4 19.7c-1.9 0-3.6.7-4.9 2-1.2-1.3-3-2-4.9-2-3.7 0-6.6 3-6.6 6.7 0 1.4.6 3 1.6 4.5 1.2 2 3.1 3.8 4.8 5.5 2 2 3.6 3.6 4.5 4.2.2.1.4.2.6.2s.4-.1.6-.2c.9-.7 2.6-2.2 4.5-4.2 1.7-1.7 3.5-3.5 4.8-5.5 1-1.6 1.6-3.2 1.6-4.5 0-3.7-2.9-6.7-6.6-6.7z" fill="#ffb5a7"/></g></svg>