<svg id="visual" viewBox="0 0 1280 1800" width="1280" height="1800" xmlns="http://www.w3.org/2000/svg" xmlns:xlink="http://www.w3.org/1999/xlink" version="1.1"><g stroke-width="1" stroke-linejoin="bevel"><path d="M719.4 952L672.4 1111L860.3 1131Z" fill="#eaeaea" stroke="#eaeaea"></path><path d="M860.3 1131L899.3 885L719.4 952Z" fill="#f1f1f1" stroke="#f1f1f1"></path><path d="M672.4 1111L687.4 1296L860.3 1131Z" fill="#e8e8e8" stroke="#e8e8e8"></path><path d="M687.4 1296L872.3 1292L860.3 1131Z" fill="#ececec" stroke="#ececec"></path><path d="M860.3 1131L1090.1 1100L899.3 885Z" fill="#fdfdfd" stroke="#fdfdfd"></path><path d="M719.4 952L507.6 1050L672.4 1111Z" fill="#eaeaea" stroke="#eaeaea"></path><path d="M672.4 1111L553.6 1307L687.4 1296Z" fill="#efefef" stroke="#efefef"></path><path d="M719.4 952L499.6 903L507.6 1050Z" fill="#ffffff" stroke="#ffffff"></path><path d="M539.6 756L499.6 903L719.4 952Z" fill="#eaeaea" stroke="#eaeaea"></path><path d="M1066.1 1239L1090.1 1100L860.3 1131Z" fill="#efefef" stroke="#efefef"></path><path d="M507.6 1050L553.6 1307L672.4 1111Z" fill="#f3f3f3" stroke="#f3f3f3"></path><path d="M687.4 1296L788.4 1483L872.3 1292Z" fill="#ffffff" stroke="#ffffff"></path><path d="M872.3 1292L1066.1 1239L860.3 1131Z" fill="#fafafa" stroke="#fafafa"></path><path d="M899.3 885L706.4 700L719.4 952Z" fill="#e8e8e8" stroke="#e8e8e8"></path><path d="M706.4 700L539.6 756L719.4 952Z" fill="#eaeaea" stroke="#eaeaea"></path><path d="M1090.1 1100L1114.1 864L899.3 885Z" fill="#fdfdfd" stroke="#fdfdfd"></path><path d="M899.3 885L957.3 696L706.4 700Z" fill="#f5f5f5" stroke="#f5f5f5"></path><path d="M1114.1 864L957.3 696L899.3 885Z" fill="#efefef" stroke="#efefef"></path><path d="M363.7 1107L418.7 1266L507.6 1050Z" fill="#f3f3f3" stroke="#f3f3f3"></path><path d="M507.6 1050L418.7 1266L553.6 1307Z" fill="#f8f8f8" stroke="#f8f8f8"></path><path d="M322.7 949L363.7 1107L507.6 1050Z" fill="#ffffff" stroke="#ffffff"></path><path d="M322.7 949L507.6 1050L499.6 903Z" fill="#fafafa" stroke="#fafafa"></path><path d="M530.6 1462L687.4 1296L553.6 1307Z" fill="#f5f5f5" stroke="#f5f5f5"></path><path d="M530.6 1462L788.4 1483L687.4 1296Z" fill="#eaeaea" stroke="#eaeaea"></path><path d="M872.3 1292L1088.1 1436L1066.1 1239Z" fill="#f1f1f1" stroke="#f1f1f1"></path><path d="M316.7 772L322.7 949L499.6 903Z" fill="#efefef" stroke="#efefef"></path><path d="M788.4 1483L941.3 1498L872.3 1292Z" fill="#e8e8e8" stroke="#e8e8e8"></path><path d="M418.7 1266L530.6 1462L553.6 1307Z" fill="#ececec" stroke="#ececec"></path><path d="M788.4 1483L880.3 1603L941.3 1498Z" fill="#ffffff" stroke="#ffffff"></path><path d="M941.3 1498L1088.1 1436L872.3 1292Z" fill="#f1f1f1" stroke="#f1f1f1"></path><path d="M1280 1293L1280 1071L1090.1 1100Z" fill="#e8e8e8" stroke="#e8e8e8"></path><path d="M1090.1 1100L1280 1071L1114.1 864Z" fill="#fafafa" stroke="#fafafa"></path><path d="M957.3 696L878.3 567L706.4 700Z" fill="#f5f5f5" stroke="#f5f5f5"></path><path d="M706.4 700L567.6 499L539.6 756Z" fill="#fdfdfd" stroke="#fdfdfd"></path><path d="M1100.1 505L878.3 567L957.3 696Z" fill="#eaeaea" stroke="#eaeaea"></path><path d="M1114.1 864L1108.1 684L957.3 696Z" fill="#f5f5f5" stroke="#f5f5f5"></path><path d="M1280 1293L1090.1 1100L1066.1 1239Z" fill="#f3f3f3" stroke="#f3f3f3"></path><path d="M1114.1 864L1280 733L1108.1 684Z" fill="#f5f5f5" stroke="#f5f5f5"></path><path d="M878.3 567L728.4 542L706.4 700Z" fill="#e8e8e8" stroke="#e8e8e8"></path><path d="M539.6 756L316.7 772L499.6 903Z" fill="#f5f5f5" stroke="#f5f5f5"></path><path d="M325.7 594L316.7 772L539.6 756Z" fill="#f3f3f3" stroke="#f3f3f3"></path><path d="M1280 1071L1280 873L1114.1 864Z" fill="#fdfdfd" stroke="#fdfdfd"></path><path d="M530.6 1462L752.4 1608L788.4 1483Z" fill="#f3f3f3" stroke="#f3f3f3"></path><path d="M941.3 1498L1055.1 1561L1088.1 1436Z" fill="#e8e8e8" stroke="#e8e8e8"></path><path d="M752.4 1608L880.3 1603L788.4 1483Z" fill="#f3f3f3" stroke="#f3f3f3"></path><path d="M1088.1 1436L1280 1293L1066.1 1239Z" fill="#f1f1f1" stroke="#f1f1f1"></path><path d="M1280 1407L1280 1293L1088.1 1436Z" fill="#ececec" stroke="#ececec"></path><path d="M316.7 772L215.9 927L322.7 949Z" fill="#e8e8e8" stroke="#e8e8e8"></path><path d="M322.7 949L159.9 1131L363.7 1107Z" fill="#f1f1f1" stroke="#f1f1f1"></path><path d="M166.9 1407L375.7 1470L418.7 1266Z" fill="#f8f8f8" stroke="#f8f8f8"></path><path d="M418.7 1266L375.7 1470L530.6 1462Z" fill="#efefef" stroke="#efefef"></path><path d="M135.9 1243L418.7 1266L363.7 1107Z" fill="#f3f3f3" stroke="#f3f3f3"></path><path d="M530.6 1462L538.6 1665L752.4 1608Z" fill="#eaeaea" stroke="#eaeaea"></path><path d="M880.3 1603L1055.1 1561L941.3 1498Z" fill="#ececec" stroke="#ececec"></path><path d="M695.4 372L567.6 499L728.4 542Z" fill="#f5f5f5" stroke="#f5f5f5"></path><path d="M728.4 542L567.6 499L706.4 700Z" fill="#f1f1f1" stroke="#f1f1f1"></path><path d="M1280 873L1280 733L1114.1 864Z" fill="#fdfdfd" stroke="#fdfdfd"></path><path d="M1108.1 684L1100.1 505L957.3 696Z" fill="#efefef" stroke="#efefef"></path><path d="M1280 1622L1280 1407L1088.1 1436Z" fill="#f8f8f8" stroke="#f8f8f8"></path><path d="M215.9 927L159.9 1131L322.7 949Z" fill="#ececec" stroke="#ececec"></path><path d="M1280 553L1100.1 505L1108.1 684Z" fill="#e8e8e8" stroke="#e8e8e8"></path><path d="M878.3 567L695.4 372L728.4 542Z" fill="#eaeaea" stroke="#eaeaea"></path><path d="M567.6 499L325.7 594L539.6 756Z" fill="#ececec" stroke="#ececec"></path><path d="M316.7 772L135.9 752L215.9 927Z" fill="#fdfdfd" stroke="#fdfdfd"></path><path d="M364.7 1614L538.6 1665L530.6 1462Z" fill="#eaeaea" stroke="#eaeaea"></path><path d="M752.4 1608L965.3 1800L880.3 1603Z" fill="#eaeaea" stroke="#eaeaea"></path><path d="M159.9 1131L135.9 1243L363.7 1107Z" fill="#eaeaea" stroke="#eaeaea"></path><path d="M375.7 1470L364.7 1614L530.6 1462Z" fill="#ffffff" stroke="#ffffff"></path><path d="M907.3 317L695.4 372L878.3 567Z" fill="#ffffff" stroke="#ffffff"></path><path d="M567.6 499L331.7 356L325.7 594Z" fill="#ffffff" stroke="#ffffff"></path><path d="M168.9 1627L364.7 1614L375.7 1470Z" fill="#f5f5f5" stroke="#f5f5f5"></path><path d="M695.4 372L588.6 383L567.6 499Z" fill="#fdfdfd" stroke="#fdfdfd"></path><path d="M135.9 1243L166.9 1407L418.7 1266Z" fill="#f8f8f8" stroke="#f8f8f8"></path><path d="M325.7 594L135.9 752L316.7 772Z" fill="#f3f3f3" stroke="#f3f3f3"></path><path d="M215.9 927L0 1051L159.9 1131Z" fill="#f8f8f8" stroke="#f8f8f8"></path><path d="M159.9 1131L0 1269L135.9 1243Z" fill="#f1f1f1" stroke="#f1f1f1"></path><path d="M1280 733L1280 553L1108.1 684Z" fill="#ffffff" stroke="#ffffff"></path><path d="M1100.1 505L907.3 317L878.3 567Z" fill="#fafafa" stroke="#fafafa"></path><path d="M1039.1 317L907.3 317L1100.1 505Z" fill="#f5f5f5" stroke="#f5f5f5"></path><path d="M556.6 137L331.7 356L588.6 383Z" fill="#fafafa" stroke="#fafafa"></path><path d="M538.6 1665L675.4 1800L752.4 1608Z" fill="#ffffff" stroke="#ffffff"></path><path d="M1154.1 1800L1280 1622L1055.1 1561Z" fill="#fdfdfd" stroke="#fdfdfd"></path><path d="M584.6 1800L675.4 1800L538.6 1665Z" fill="#fafafa" stroke="#fafafa"></path><path d="M965.3 1800L1055.1 1561L880.3 1603Z" fill="#fafafa" stroke="#fafafa"></path><path d="M1055.1 1561L1280 1622L1088.1 1436Z" fill="#e8e8e8" stroke="#e8e8e8"></path><path d="M404.7 1800L584.6 1800L538.6 1665Z" fill="#efefef" stroke="#efefef"></path><path d="M675.4 1800L965.3 1800L752.4 1608Z" fill="#f5f5f5" stroke="#f5f5f5"></path><path d="M0 925L0 1051L215.9 927Z" fill="#e8e8e8" stroke="#e8e8e8"></path><path d="M135.9 1243L0 1269L166.9 1407Z" fill="#f3f3f3" stroke="#f3f3f3"></path><path d="M1280 303L1039.1 317L1100.1 505Z" fill="#fafafa" stroke="#fafafa"></path><path d="M135.9 752L0 925L215.9 927Z" fill="#fafafa" stroke="#fafafa"></path><path d="M0 1051L0 1269L159.9 1131Z" fill="#f8f8f8" stroke="#f8f8f8"></path><path d="M183.9 1800L404.7 1800L364.7 1614Z" fill="#e8e8e8" stroke="#e8e8e8"></path><path d="M588.6 383L331.7 356L567.6 499Z" fill="#f8f8f8" stroke="#f8f8f8"></path><path d="M325.7 594L124.9 538L135.9 752Z" fill="#f8f8f8" stroke="#f8f8f8"></path><path d="M135.9 752L0 676L0 925Z" fill="#fdfdfd" stroke="#fdfdfd"></path><path d="M704.4 163L588.6 383L695.4 372Z" fill="#fafafa" stroke="#fafafa"></path><path d="M177.9 375L124.9 538L325.7 594Z" fill="#f8f8f8" stroke="#f8f8f8"></path><path d="M168.9 1627L375.7 1470L166.9 1407Z" fill="#fafafa" stroke="#fafafa"></path><path d="M364.7 1614L404.7 1800L538.6 1665Z" fill="#eaeaea" stroke="#eaeaea"></path><path d="M0 1454L168.9 1627L166.9 1407Z" fill="#f8f8f8" stroke="#f8f8f8"></path><path d="M965.3 1800L1154.1 1800L1055.1 1561Z" fill="#f1f1f1" stroke="#f1f1f1"></path><path d="M124.9 538L0 676L135.9 752Z" fill="#f5f5f5" stroke="#f5f5f5"></path><path d="M0 1269L0 1454L166.9 1407Z" fill="#f3f3f3" stroke="#f3f3f3"></path><path d="M914.3 152L704.4 163L907.3 317Z" fill="#fafafa" stroke="#fafafa"></path><path d="M907.3 317L704.4 163L695.4 372Z" fill="#efefef" stroke="#efefef"></path><path d="M1154.1 1800L1280 1800L1280 1622Z" fill="#f5f5f5" stroke="#f5f5f5"></path><path d="M124.9 538L0 591L0 676Z" fill="#fdfdfd" stroke="#fdfdfd"></path><path d="M0 380L0 591L124.9 538Z" fill="#ececec" stroke="#ececec"></path><path d="M156.9 210L177.9 375L331.7 356Z" fill="#f1f1f1" stroke="#f1f1f1"></path><path d="M331.7 356L177.9 375L325.7 594Z" fill="#fdfdfd" stroke="#fdfdfd"></path><path d="M1280 553L1280 303L1100.1 505Z" fill="#ececec" stroke="#ececec"></path><path d="M1039.1 317L914.3 152L907.3 317Z" fill="#efefef" stroke="#efefef"></path><path d="M1077.1 130L914.3 152L1039.1 317Z" fill="#f1f1f1" stroke="#f1f1f1"></path><path d="M687.4 0L556.6 137L704.4 163Z" fill="#fdfdfd" stroke="#fdfdfd"></path><path d="M704.4 163L556.6 137L588.6 383Z" fill="#f3f3f3" stroke="#f3f3f3"></path><path d="M0 1454L0 1594L168.9 1627Z" fill="#fdfdfd" stroke="#fdfdfd"></path><path d="M168.9 1627L183.9 1800L364.7 1614Z" fill="#efefef" stroke="#efefef"></path><path d="M0 1800L183.9 1800L168.9 1627Z" fill="#f8f8f8" stroke="#f8f8f8"></path><path d="M1280 303L1077.1 130L1039.1 317Z" fill="#ffffff" stroke="#ffffff"></path><path d="M914.3 152L687.4 0L704.4 163Z" fill="#fafafa" stroke="#fafafa"></path><path d="M556.6 137L366.7 141L331.7 356Z" fill="#ffffff" stroke="#ffffff"></path><path d="M177.9 375L0 380L124.9 538Z" fill="#fdfdfd" stroke="#fdfdfd"></path><path d="M156.9 210L0 380L177.9 375Z" fill="#f1f1f1" stroke="#f1f1f1"></path><path d="M366.7 141L156.9 210L331.7 356Z" fill="#f5f5f5" stroke="#f5f5f5"></path><path d="M1280 303L1280 130L1077.1 130Z" fill="#fafafa" stroke="#fafafa"></path><path d="M930.3 0L687.4 0L914.3 152Z" fill="#f5f5f5" stroke="#f5f5f5"></path><path d="M556.6 137L522.6 0L366.7 141Z" fill="#e8e8e8" stroke="#e8e8e8"></path><path d="M366.7 141L311.7 0L156.9 210Z" fill="#f8f8f8" stroke="#f8f8f8"></path><path d="M930.3 0L914.3 152L1077.1 130Z" fill="#ececec" stroke="#ececec"></path><path d="M1058.1 0L930.3 0L1077.1 130Z" fill="#f5f5f5" stroke="#f5f5f5"></path><path d="M0 1594L0 1800L168.9 1627Z" fill="#ffffff" stroke="#ffffff"></path><path d="M687.4 0L522.6 0L556.6 137Z" fill="#ffffff" stroke="#ffffff"></path><path d="M1280 0L1058.1 0L1077.1 130Z" fill="#eaeaea" stroke="#eaeaea"></path><path d="M522.6 0L311.7 0L366.7 141Z" fill="#fdfdfd" stroke="#fdfdfd"></path><path d="M156.9 210L0 149L0 380Z" fill="#f5f5f5" stroke="#f5f5f5"></path><path d="M1280 130L1280 0L1077.1 130Z" fill="#fdfdfd" stroke="#fdfdfd"></path><path d="M125.9 0L0 149L156.9 210Z" fill="#efefef" stroke="#efefef"></path><path d="M311.7 0L125.9 0L156.9 210Z" fill="#f3f3f3" stroke="#f3f3f3"></path><path d="M125.9 0L0 0L0 149Z" fill="#f5f5f5" stroke="#f5f5f5"></path></g></svg>