<svg width="653" height="600" fill="none" xmlns="http://www.w3.org/2000/svg"><path d="M463.704 0c-53.922 0-102.675 20.852-137.408 56.775a.427.427 0 01-.611 0C290.952 20.852 242.199 0 188.297 0 82.8 0 .134 83.656 0 189.174c-.057 39.09 15.831 84.304 44.404 128.793 35.44 55.211 88.445 107.331 135.519 154.586 56.249 56.47 103.38 100.864 128.978 119.274 5.531 3.987 11.367 7.192 17.109 7.192 5.741 0 11.558-3.205 17.109-7.192 25.597-18.41 72.728-62.804 128.977-119.274 47.074-47.255 100.08-99.375 135.519-154.586 28.573-44.489 44.442-89.684 44.404-128.793C651.886 83.674 569.22 0 463.723 0h-.019zm-34.848 320.104c-12.951 20.165-32.311 39.204-49.497 56.47-20.542 20.623-37.747 36.839-47.112 43.554-2.022 1.45-4.158 2.633-6.237 2.633-2.098 0-4.216-1.164-6.237-2.633-9.347-6.715-26.57-22.931-47.113-43.554-17.185-17.266-36.545-36.305-49.496-56.47-10.434-16.254-16.232-32.756-16.213-47.046.057-38.536 30.251-69.099 68.78-69.099 19.684 0 37.499 7.612 50.183 20.738.058.057.172.057.229 0 12.684-13.126 30.499-20.738 50.183-20.738 38.53 0 68.723 30.563 68.781 69.099 0 14.29-5.78 30.792-16.213 47.046h-.038z" fill="#fff"/></svg>